<?xml version="1.0" encoding="UTF-8"?>
<svg id="Layer_1" xmlns="http://www.w3.org/2000/svg" xmlns:xlink="http://www.w3.org/1999/xlink" version="1.1" viewBox="0 0 512.03 512.03">
  <!-- Generator: Adobe Illustrator 29.8.2, SVG Export Plug-In . SVG Version: 2.1.1 Build 3)  -->
  <defs>
    <style>
      .st0 {
        filter: url(#drop-shadow-1);
      }

      .st1 {
        fill: #ffce00;
      }

      .st2 {
        fill: url(#radial-gradient);
      }

      .st3 {
        fill: #0c0704;
      }
    </style>
    <filter id="drop-shadow-1" x="7.74" y="73.41" width="503" height="222" filterUnits="userSpaceOnUse">
      <feOffset dx="3" dy="13"/>
      <feGaussianBlur result="blur" stdDeviation="5"/>
      <feFlood flood-color="#000" flood-opacity=".63"/>
      <feComposite in2="blur" operator="in"/>
      <feComposite in="SourceGraphic"/>
    </filter>
    <radialGradient id="radial-gradient" cx="306.33" cy="171.54" fx="306.33" fy="171.54" r="162.33" gradientTransform="translate(-77.48) scale(1.09 1)" gradientUnits="userSpaceOnUse">
      <stop offset="0" stop-color="#801117"/>
      <stop offset=".59" stop-color="#fa7135"/>
      <stop offset=".72" stop-color="#f88725"/>
      <stop offset="1" stop-color="#f4bf00"/>
    </radialGradient>
  </defs>
  <circle class="st1" cx="256.01" cy="256.01" r="256.01"/>
  <path class="st3" d="M442.16,291.24c-9.61-9.61-33.62-13.21-44.13-7.5-10.51,5.7-4.77,17.29,4.5,13.81,7.5-2.81,8.96.23,9.24,3.7-13.08,78.01-77.84,135.65-154.44,135.65s-140.76-57.14-154.26-134.56c.3-3.43,1.8-6.4,9.23-3.61,9.27,3.48,15.01-8.11,4.5-13.81-10.51-5.7-34.52-2.1-44.13,7.5-6.77,6.77,1.8,16.21,7.8,11.41,3.78-3.03,5.54-3.07,6.77-.51,14.14,85.8,85.63,149.34,170.08,149.34,42.74,0,83.76-16.43,115.48-46.27,29.19-27.45,48.43-64.2,54.79-104.3,1.23-2.51,2.99-2.45,6.75.56,6,4.8,14.57-4.64,7.8-11.41Z"/>
  <g class="st0">
    <path class="st2" d="M467.24,100.49c-2.54-4.85-30.37-12.68-49.7-16.48-19.33-3.8-111.13-1.9-161.51-1.9s-142.19-1.9-161.52,1.9c-19.33,3.8-47.16,11.64-49.7,16.48-7.3,13.94-25.84,97.08-15.88,121.09,11.59,27.92,120.23,45.79,157.37,38.04,18.98-25.68,52.88-100.51,56.94-102.18,3.28-1.34,22.57-1.52,25.54,0,3.89,1.99,37.96,76.5,56.94,102.18,37.14,7.75,145.79-10.12,157.37-38.04,9.97-24.01-8.58-107.16-15.88-121.09Z"/>
    <path class="st3" d="M348.39,267c-9.43,0-17.65-.64-23.99-1.96l-2.32-.48-1.34-1.81c-11.42-15.45-27.48-46.8-40.38-71.99-6.2-12.1-12.58-24.57-15.11-28.45-4.02-.54-14.41-.49-18.58.08-2.7,4.06-9.67,17.71-15.89,29.88-12.61,24.67-28.29,55.38-39.47,70.49l-1.34,1.81-2.32.48c-19.24,4.02-55.79,1.75-90.96-5.64-23.95-5.03-65.33-16.38-73.4-35.83-5.98-14.42-2.68-44.47,1.14-67.15,4.15-24.64,10.71-50.26,14.94-58.32,1.49-2.84,5.18-6.19,22.04-11.48,9.43-2.96,21.33-5.96,31.83-8.03,15.42-3.04,71.93-2.61,121.78-2.24,14.99.11,29.14.22,41,.22s26.01-.11,41-.22c49.86-.37,106.36-.79,121.78,2.24,10.5,2.07,22.4,5.07,31.83,8.03,16.86,5.29,20.56,8.64,22.04,11.48h0c8.04,15.34,26.86,99.48,16.08,125.47-8.07,19.44-49.45,30.79-73.4,35.83-23.58,4.96-47.78,7.61-66.97,7.61ZM329.39,254.65c18.03,2.99,51.64.58,83.27-6.07,35.67-7.5,60.5-18.6,64.81-28.96,9.03-21.76-8.36-101.88-15.48-116.33-3.53-2.92-24.28-9.63-45.72-13.85-14.12-2.78-72.36-2.35-119.16-2-15.01.11-29.19.22-41.09.22s-26.08-.11-41.09-.22c-46.8-.35-105.03-.78-119.16,2-21.43,4.22-42.18,10.93-45.72,13.85-7.11,14.45-24.51,94.57-15.48,116.33,4.3,10.37,29.14,21.47,64.81,28.96,31.63,6.65,65.23,9.06,83.27,6.07,10.62-15.11,25.9-45.02,37.19-67.11,16.22-31.74,17.6-33.78,20.96-35.16,4.45-1.82,25.78-2.42,30.94.22,2.88,1.48,4.3,3.65,19.55,33.42,11.57,22.58,27.24,53.17,38.1,68.62ZM264.57,161.35s0,0,0,0c0,0,0,0,0,0Z"/>
  </g>
</svg>